<svg xmlns="http://www.w3.org/2000/svg" xmlns:xlink="http://www.w3.org/1999/xlink" xmlns:lucid="lucid" width="1600" height="480"><g transform="translate(0 0)" lucid:page-tab-id="0_0"><path d="M320 384c0 8.84-26.86 16-60 16s-60-7.16-60-16V256c0-8.84 26.86-16 60-16s60 7.16 60 16z" stroke="#000" stroke-width="2" fill="#fff"/><path d="M320 256c0 8.84-26.86 16-60 16s-60-7.16-60-16" stroke="#000" stroke-width="2" fill="none"/><use xlink:href="#a" transform="matrix(1,0,0,1,205,277) translate(19.845679012345677 50.111111111111114)"/><use xlink:href="#b" transform="matrix(1,0,0,1,205,277) translate(2.0061728395061706 76.77777777777777)"/><path d="M92 60h96l32 60-32 60H92l-32-60z" stroke="#000" stroke-width="2" fill="#fff"/><use xlink:href="#c" transform="matrix(1,0,0,1,65,65) translate(40.339506172839506 59.44444444444444)"/><path d="M280 60h160v120H280z" stroke="#000" stroke-width="2" fill="#fff"/><use xlink:href="#d" transform="matrix(1,0,0,1,285,65) translate(42.96296296296297 46.111111111111114)"/><use xlink:href="#e" transform="matrix(1,0,0,1,285,65) translate(28.117283950617278 72.77777777777777)"/><path d="M221.13 120h39.63" stroke="#000" stroke-width="2" fill="none"/><path d="M221.13 121h-1.66l.53-1-.53-1h1.66zM275.76 120l-14.26 4.64v-9.28z"/><path d="M279 120l-18.5 6v-12zm-16.5 3.26l10.03-3.26-10.03-3.26z"/><path d="M500 60h160v120H500z" stroke="#000" stroke-width="2" fill="#fff"/><use xlink:href="#f" transform="matrix(1,0,0,1,505,65) translate(44.19753086419753 46.111111111111114)"/><use xlink:href="#g" transform="matrix(1,0,0,1,505,65) translate(37.99382716049382 72.77777777777777)"/><path d="M441 120h39.76" stroke="#000" stroke-width="2" fill="none"/><path d="M441 121h-1v-2h1zM495.76 120l-14.26 4.64v-9.28z"/><path d="M499 120l-18.5 6v-12zm-16.5 3.26l10.03-3.26-10.03-3.26z"/><path d="M661 120h39.76" stroke="#000" stroke-width="2" fill="none"/><path d="M661 121h-1v-2h1zM715.76 120l-14.26 4.64v-9.28z"/><path d="M719 120l-18.5 6v-12zm-16.5 3.26l10.03-3.26-10.03-3.26z"/><path d="M720 60h160v120H720z" stroke="#000" stroke-width="2" fill="#fff"/><use xlink:href="#h" transform="matrix(1,0,0,1,725,65) translate(50.37037037037037 59.44444444444444)"/><path d="M720 260h160v120H720z" fill="#fff"/><path d="M725.96 260h2m4.96 0h2m4.96 0h1.98m4.97 0h2m4.96 0h1.98m4.97 0h1.98m4.97 0h2m4.96 0h2m4.95 0h2m4.97 0h2m4.96 0h2m4.95 0h2m4.96 0h2m4.96 0h2m4.95 0h2m4.96 0h2m4.97 0h1.98m4.97 0h2m4.96 0h2m4.96 0h1.98m4.97 0h1.98m4.97 0h2m4.96 0h1v1m0 5.05v2.02m0 5.04v2.03m0 5.04v2m0 5.06v2m0 5.06v2m0 5.04v2.02m0 5.04v2.02m0 5.04v2.02m0 5.04v2.02m0 5.04v2.02m0 5.04v2.02m0 5.04v2m0 5.06v2m0 5.06v2m0 5.05v2.02m0 5.03v2.02m0 5.04v1h-1m-4.96 0h-2m-4.96 0h-2m-4.96 0h-1.98m-4.97 0h-2m-4.96 0h-1.98m-4.97 0h-1.98m-4.97 0h-2m-4.96 0h-2m-4.95 0h-2m-4.97 0h-2m-4.96 0h-2m-4.95 0h-2m-4.96 0h-2m-4.96 0h-2m-4.95 0h-2m-4.96 0h-2m-4.97 0h-1.98m-4.97 0h-2m-4.96 0h-2m-4.96 0h-1.98m-4.97 0h-1.98m-4.97 0h-2m-4.96 0h-1v-1m0-5.05v-2.02m0-5.04v-2.03m0-5.04v-2m0-5.06v-2m0-5.06v-2m0-5.04v-2.02m0-5.04v-2.02m0-5.04v-2.02m0-5.04v-2.02m0-5.04v-2.02m0-5.04v-2.02m0-5.04v-2m0-5.06v-2m0-5.06v-2m0-5.05v-2.02m0-5.03v-2.02m0-5.04v-1h1" stroke="#000" stroke-width="2" fill="none"/><path d="M757.4 327.4h3.4c1.7 0 3.1.6 3.6 2.3.8 2.7 1.9 4.8 3.2 7.2.9 1.5.7 3.2-.5 4.4l-2.5 2.5c-.7.7-.7 1.9 0 2.6l7.9 7.9c.7.7 1.9.7 2.6 0l2.5-2.5c1.2-1.2 2.9-1.3 4.4-.5 2.4 1.3 5 2.4 7.8 3.2 1.6.5 2.8 1.9 2.8 3.6v3.4c0 1 .8 3 1.8 3h11.2c1 0 1.8-2 1.8-3v-3.4c0-1.7 1.2-3.1 2.8-3.6 2.8-.8 5.4-1.9 7.8-3.2 1.5-.8 3.2-.7 4.4.5l2.5 2.5c.7.7 1.9.7 2.6 0l7.9-7.9c.7-.7.7-1.8 0-2.5l-2.5-2.5c-1.2-1.1-1.3-2.8-.5-4.2 1.3-2.4 2.4-4.8 3.2-7.5.5-1.7 1.9-2.3 3.6-2.3h3.4c1 0 1.8-1.9 1.8-2.9v-11.1c0-1.1-.8-.8-1.8-.8h-3.4c-1.7 0-3.1-1.7-3.6-3.3-.8-2.8-1.9-6-3.2-8.4-.9-1.4-.7-3.2.5-4.4l2.5-2.5c.7-.7.7-1.9 0-2.6l-7.9-7.8c-.7-.8-1.9-.8-2.6 0l-2.5 2.4c-1.2 1.2-2.9 1.4-4.4.6-2.4-1.4-5-2.5-7.8-3.3-1.6-.5-2.8-1.9-2.8-3.6v-3.4c0-1-.8-.7-1.8-.7h-11.2c-1 0-1.8-.3-1.8.7v3.4c0 1.7-1.2 3.1-2.8 3.6-2.8.8-5.4 1.9-7.8 3.3-1.5.8-3.2.6-4.4-.6l-2.5-2.4c-.7-.8-1.9-.8-2.6 0l-7.9 7.8c-.7.8-.7 2 0 2.7l2.5 2.6c1.2 1.1 1.4 3 .5 4.5-1.3 2.4-2.4 5.3-3.2 8.1-.5 1.6-1.9 3.3-3.6 3.3h-3.4c-1 0-1.8-.3-1.8.8v11.1c0 1 .8 2.9 1.8 2.9m42.6-30.7c12.3 0 22.2 9.9 22.2 22.2 0 12.3-9.9 22.2-22.2 22.2-12.3 0-22.2-9.9-22.2-22.2 0-12.3 9.9-22.2 22.2-22.2" fill="#f3f3f3"/><use xlink:href="#i" transform="matrix(1,0,0,1,725,265) translate(50.37037037037037 46.111111111111114)"/><use xlink:href="#j" transform="matrix(1,0,0,1,725,265) translate(49.135802469135804 72.77777777777777)"/><path d="M800 181v60.76" stroke="#000" stroke-width="2" fill="none"/><path d="M801 181h-2v-1h2zM800 256.76l-4.64-14.26h9.28z"/><path d="M800 260l-6-18.5h12zm-3.26-16.5l3.26 10.03 3.26-10.03z"/><path d="M360 181l.37 15.7 2.54 57.04-.2 9.96-.44 7.28-.6 5.7-.68 4.66-.74 3.9-.8 3.34-.8 2.9-.82 2.55-.84 2.26-.85 2.02-.86 1.83-.87 1.66-.88 1.53-.88 1.4-.9 1.3-.9 1.18-.93 1.12-.92 1.04-.96.98-.97.9-1 .87-1.02.82-1.05.77-1.1.7-1.1.7-1.18.63-1.22.6-.6.27" stroke="#000" stroke-width="2" fill="none"/><path d="M361 180.98l-2 .05-.02-1.03h2zM339.06 321.27l-14.88-1.88 13.14-7.24z"/><path d="M340.3 322.43L321 320l17.05-9.38zm-12.94-3.64l10.46 1.3-1.22-6.4z"/><path d="M940 60h160v120H940z" stroke="#000" stroke-width="2" fill="#fff"/><use xlink:href="#k" transform="matrix(1,0,0,1,945,65) translate(55.308641975308646 46.111111111111114)"/><use xlink:href="#l" transform="matrix(1,0,0,1,945,65) translate(49.10493827160494 72.77777777777777)"/><path d="M881 120h39.76" stroke="#000" stroke-width="2" fill="none"/><path d="M881 121h-1v-2h1zM935.76 120l-14.26 4.64v-9.28z"/><path d="M939 120l-18.5 6v-12zm-16.5 3.26l10.03-3.26-10.03-3.26z"/><path d="M1160 60h160v120h-160z" stroke="#000" stroke-width="2" fill="#fff"/><use xlink:href="#m" transform="matrix(1,0,0,1,1165,65) translate(35.52469135802469 59.44444444444444)"/><path d="M1140.76 120H1101" stroke="#000" stroke-width="2" fill="none"/><path d="M1155.76 120l-14.26 4.64v-9.28z"/><path d="M1159 120l-18.5 6v-12zm-16.5 3.26l10.03-3.26-10.03-3.26zM1101 121h-1v-2h1z"/><path d="M1520 384c0 8.84-26.86 16-60 16s-60-7.16-60-16V256c0-8.84 26.86-16 60-16s60 7.16 60 16z" stroke="#000" stroke-width="2" fill="#fff"/><path d="M1520 256c0 8.84-26.86 16-60 16s-60-7.16-60-16" stroke="#000" stroke-width="2" fill="none"/><use xlink:href="#n" transform="matrix(1,0,0,1,1405,277) translate(20.49382716049383 50.111111111111114)"/><use xlink:href="#b" transform="matrix(1,0,0,1,1405,277) translate(2.0061728395061706 76.77777777777777)"/><path d="M140 181l.54 43.16.95 15.54 1.15 11.07 1.26 8.62 1.34 6.98 1.36 5.83 1.4 4.97 1.38 4.3 1.4 3.73 1.38 3.3 1.38 2.95 1.38 2.63 1.37 2.38 1.36 2.16 1.37 1.97 1.37 1.8 1.37 1.66 1.4 1.54 1.38 1.42 1.4 1.32 1.43 1.23 1.44 1.14 1.47 1.08 1.5 1 1.53.93 1.58.88 1.64.8 1.68.76 1.74.7 1.1.37" stroke="#000" stroke-width="2" fill="none"/><path d="M141 181h-2v-1h2zM195.8 319.5l-14.8 2.4 1.42-9.17z"/><path d="M199 320l-19.2 3.1 1.84-11.88zm-16.8.68l10.4-1.67-9.4-4.76z"/><path d="M1380 60h160v120h-160z" stroke="#000" stroke-width="2" fill="#fff"/><use xlink:href="#o" transform="matrix(1,0,0,1,1385,65) translate(37.34567901234568 46.111111111111114)"/><use xlink:href="#p" transform="matrix(1,0,0,1,1385,65) translate(94.1358024691358 46.111111111111114)"/><use xlink:href="#q" transform="matrix(1,0,0,1,1385,65) translate(22.00617283950617 72.77777777777777)"/><path d="M1321 120h39.76" stroke="#000" stroke-width="2" fill="none"/><path d="M1321 121h-1v-2h1zM1375.76 120l-14.26 4.64v-9.28z"/><path d="M1379 120l-18.5 6v-12zm-16.5 3.26l10.03-3.26-10.03-3.26z"/><path d="M1460 181v39.76" stroke="#000" stroke-width="2" fill="none"/><path d="M1461 181h-2v-1h2zM1460 235.76l-4.64-14.26h9.28z"/><path d="M1460 239l-6-18.5h12zm-3.26-16.5l3.26 10.03 3.26-10.03z"/><path d="M940 260h160v120H940z" fill="#fff"/><path d="M945.96 260h2m4.96 0h2m4.96 0h1.98m4.97 0h2m4.96 0h1.98m4.97 0h1.98m4.97 0h2m4.96 0h2m4.95 0h2m4.97 0h2m4.96 0h2m4.95 0h2m4.96 0h2m4.96 0h2m4.95 0h2m4.96 0h2m4.97 0h1.98m4.97 0h2m4.96 0h2m4.96 0h1.98m4.97 0h1.98m4.97 0h2m4.96 0h1v1m0 5.05v2.02m0 5.04v2.03m0 5.04v2m0 5.06v2m0 5.06v2m0 5.04v2.02m0 5.04v2.02m0 5.04v2.02m0 5.04v2.02m0 5.04v2.02m0 5.04v2.02m0 5.04v2m0 5.06v2m0 5.06v2m0 5.05v2.02m0 5.03v2.02m0 5.04v1h-1m-4.96 0h-2m-4.96 0h-2m-4.96 0h-1.98m-4.97 0h-2m-4.96 0h-1.98m-4.97 0h-1.98m-4.97 0h-2m-4.96 0h-2m-4.95 0h-2m-4.97 0h-2m-4.96 0h-2m-4.95 0h-2m-4.96 0h-2m-4.96 0h-2m-4.95 0h-2m-4.96 0h-2m-4.97 0h-1.98m-4.97 0h-2m-4.96 0h-2m-4.96 0h-1.98m-4.97 0h-1.98m-4.97 0h-2m-4.96 0h-1v-1m0-5.05v-2.02m0-5.04v-2.03m0-5.04v-2m0-5.06v-2m0-5.06v-2m0-5.04v-2.02m0-5.04v-2.02m0-5.04v-2.02m0-5.04v-2.02m0-5.04v-2.02m0-5.04v-2.02m0-5.04v-2m0-5.06v-2m0-5.06v-2m0-5.05v-2.02m0-5.03v-2.02m0-5.04v-1h1" stroke="#000" stroke-width="2" fill="none"/><path d="M977.4 327.4h3.4c1.7 0 3.1.6 3.6 2.3.8 2.7 1.9 4.8 3.2 7.2.9 1.5.7 3.2-.5 4.4l-2.5 2.5c-.7.7-.7 1.9 0 2.6l7.9 7.9c.7.7 1.9.7 2.6 0l2.5-2.5c1.2-1.2 2.9-1.3 4.4-.5 2.4 1.3 5 2.4 7.8 3.2 1.6.5 2.8 1.9 2.8 3.6v3.4c0 1 .8 3 1.8 3h11.2c1 0 1.8-2 1.8-3v-3.4c0-1.7 1.2-3.1 2.8-3.6 2.8-.8 5.4-1.9 7.8-3.2 1.5-.8 3.2-.7 4.4.5l2.5 2.5c.7.7 1.9.7 2.6 0l7.9-7.9c.7-.7.7-1.8 0-2.5l-2.5-2.5c-1.2-1.1-1.3-2.8-.5-4.2 1.3-2.4 2.4-4.8 3.2-7.5.5-1.7 1.9-2.3 3.6-2.3h3.4c1 0 1.8-1.9 1.8-2.9v-11.1c0-1.1-.8-.8-1.8-.8h-3.4c-1.7 0-3.1-1.7-3.6-3.3-.8-2.8-1.9-6-3.2-8.4-.9-1.4-.7-3.2.5-4.4l2.5-2.5c.7-.7.7-1.9 0-2.6l-7.9-7.8c-.7-.8-1.9-.8-2.6 0l-2.5 2.4c-1.2 1.2-2.9 1.4-4.4.6-2.4-1.4-5-2.5-7.8-3.3-1.6-.5-2.8-1.9-2.8-3.6v-3.4c0-1-.8-.7-1.8-.7h-11.2c-1 0-1.8-.3-1.8.7v3.4c0 1.7-1.2 3.1-2.8 3.6-2.8.8-5.4 1.9-7.8 3.3-1.5.8-3.2.6-4.4-.6l-2.5-2.4c-.7-.8-1.9-.8-2.6 0l-7.9 7.8c-.7.8-.7 2 0 2.7l2.5 2.6c1.2 1.1 1.4 3 .5 4.5-1.3 2.4-2.4 5.3-3.2 8.1-.5 1.6-1.9 3.3-3.6 3.3h-3.4c-1 0-1.8-.3-1.8.8v11.1c0 1 .8 2.9 1.8 2.9m42.6-30.7c12.3 0 22.2 9.9 22.2 22.2 0 12.3-9.9 22.2-22.2 22.2-12.3 0-22.2-9.9-22.2-22.2 0-12.3 9.9-22.2 22.2-22.2" fill="#f3f3f3"/><g><use xlink:href="#r" transform="matrix(1,0,0,1,945,265) translate(54.660493827160494 46.111111111111114)"/><use xlink:href="#j" transform="matrix(1,0,0,1,945,265) translate(49.135802469135804 72.77777777777777)"/></g><path d="M1020 181v60.76" stroke="#000" stroke-width="2" fill="none"/><path d="M1020 256.76l-4.64-14.26h9.28z"/><path d="M1020 260l-6-18.5h12zm-3.26-16.5l3.26 10.03 3.26-10.03z"/><defs><path d="M185-189c-5-48-123-54-124 2 14 75 158 14 163 119 3 78-121 87-175 55-17-10-28-26-33-46l33-7c5 56 141 63 141-1 0-78-155-14-162-118-5-82 145-84 179-34 5 7 8 16 11 25" id="s"/><path d="M100-194c62-1 85 37 85 99 1 63-27 99-86 99S16-35 15-95c0-66 28-99 85-99zM99-20c44 1 53-31 53-75 0-43-8-75-51-75s-53 32-53 75 10 74 51 75" id="t"/><path d="M84 4C-5 8 30-112 23-190h32v120c0 31 7 50 39 49 72-2 45-101 50-169h31l1 190h-30c-1-10 1-25-2-33-11 22-28 36-60 37" id="u"/><path d="M114-163C36-179 61-72 57 0H25l-1-190h30c1 12-1 29 2 39 6-27 23-49 58-41v29" id="v"/><path d="M96-169c-40 0-48 33-48 73s9 75 48 75c24 0 41-14 43-38l32 2c-6 37-31 61-74 61-59 0-76-41-82-99-10-93 101-131 147-64 4 7 5 14 7 22l-32 3c-4-21-16-35-41-35" id="w"/><path d="M100-194c63 0 86 42 84 106H49c0 40 14 67 53 68 26 1 43-12 49-29l28 8c-11 28-37 45-77 45C44 4 14-33 15-96c1-61 26-98 85-98zm52 81c6-60-76-77-97-28-3 7-6 17-6 28h103" id="x"/><g id="a"><use transform="matrix(0.06172839506172839,0,0,0.06172839506172839,0,0)" xlink:href="#s"/><use transform="matrix(0.06172839506172839,0,0,0.06172839506172839,14.814814814814813,0)" xlink:href="#t"/><use transform="matrix(0.06172839506172839,0,0,0.06172839506172839,27.160493827160494,0)" xlink:href="#u"/><use transform="matrix(0.06172839506172839,0,0,0.06172839506172839,39.50617283950617,0)" xlink:href="#v"/><use transform="matrix(0.06172839506172839,0,0,0.06172839506172839,46.85185185185185,0)" xlink:href="#w"/><use transform="matrix(0.06172839506172839,0,0,0.06172839506172839,57.96296296296296,0)" xlink:href="#x"/></g><path d="M233-177c-1 41-23 64-60 70L243 0h-38l-65-103H63V0H30v-248c88 3 205-21 203 71zM63-129c60-2 137 13 137-47 0-61-80-42-137-45v92" id="y"/><path d="M115-194c55 1 70 41 70 98S169 2 115 4C84 4 66-9 55-30l1 105H24l-1-265h31l2 30c10-21 28-34 59-34zm-8 174c40 0 45-34 45-75s-6-73-45-74c-42 0-51 32-51 76 0 43 10 73 51 73" id="z"/><path d="M135-143c-3-34-86-38-87 0 15 53 115 12 119 90S17 21 10-45l28-5c4 36 97 45 98 0-10-56-113-15-118-90-4-57 82-63 122-42 12 7 21 19 24 35" id="A"/><path d="M24-231v-30h32v30H24zM24 0v-190h32V0H24" id="B"/><path d="M59-47c-2 24 18 29 38 22v24C64 9 27 4 27-40v-127H5v-23h24l9-43h21v43h35v23H59v120" id="C"/><path d="M179-190L93 31C79 59 56 82 12 73V49c39 6 53-20 64-50L1-190h34L92-34l54-156h33" id="D"/><g id="b"><use transform="matrix(0.06172839506172839,0,0,0.06172839506172839,0,0)" xlink:href="#y"/><use transform="matrix(0.06172839506172839,0,0,0.06172839506172839,15.987654320987653,0)" xlink:href="#x"/><use transform="matrix(0.06172839506172839,0,0,0.06172839506172839,28.333333333333332,0)" xlink:href="#z"/><use transform="matrix(0.06172839506172839,0,0,0.06172839506172839,40.67901234567901,0)" xlink:href="#t"/><use transform="matrix(0.06172839506172839,0,0,0.06172839506172839,53.02469135802469,0)" xlink:href="#A"/><use transform="matrix(0.06172839506172839,0,0,0.06172839506172839,64.1358024691358,0)" xlink:href="#B"/><use transform="matrix(0.06172839506172839,0,0,0.06172839506172839,69.01234567901234,0)" xlink:href="#C"/><use transform="matrix(0.06172839506172839,0,0,0.06172839506172839,75.18518518518518,0)" xlink:href="#t"/><use transform="matrix(0.06172839506172839,0,0,0.06172839506172839,87.53086419753086,0)" xlink:href="#v"/><use transform="matrix(0.06172839506172839,0,0,0.06172839506172839,94.87654320987654,0)" xlink:href="#D"/></g><path d="M127-220V0H93v-220H8v-28h204v28h-85" id="E"/><path d="M177-190C167-65 218 103 67 71c-23-6-38-20-44-43l32-5c15 47 100 32 89-28v-30C133-14 115 1 83 1 29 1 15-40 15-95c0-56 16-97 71-98 29-1 48 16 59 35 1-10 0-23 2-32h30zM94-22c36 0 50-32 50-73 0-42-14-75-50-75-39 0-46 34-46 75s6 73 46 73" id="F"/><g id="c"><use transform="matrix(0.06172839506172839,0,0,0.06172839506172839,0,0)" xlink:href="#E"/><use transform="matrix(0.06172839506172839,0,0,0.06172839506172839,12.716049382716047,0)" xlink:href="#v"/><use transform="matrix(0.06172839506172839,0,0,0.06172839506172839,20.061728395061728,0)" xlink:href="#B"/><use transform="matrix(0.06172839506172839,0,0,0.06172839506172839,24.938271604938272,0)" xlink:href="#F"/><use transform="matrix(0.06172839506172839,0,0,0.06172839506172839,37.28395061728395,0)" xlink:href="#F"/><use transform="matrix(0.06172839506172839,0,0,0.06172839506172839,49.629629629629626,0)" xlink:href="#x"/><use transform="matrix(0.06172839506172839,0,0,0.06172839506172839,61.9753086419753,0)" xlink:href="#v"/></g><path d="M212-179c-10-28-35-45-73-45-59 0-87 40-87 99 0 60 29 101 89 101 43 0 62-24 78-52l27 14C228-24 195 4 139 4 59 4 22-46 18-125c-6-104 99-153 187-111 19 9 31 26 39 46" id="G"/><path d="M24 0v-261h32V0H24" id="H"/><path d="M117-194c89-4 53 116 60 194h-32v-121c0-31-8-49-39-48C34-167 62-67 57 0H25l-1-190h30c1 10-1 24 2 32 11-22 29-35 61-36" id="I"/><path d="M0 4l72-265h28L28 4H0" id="J"/><g id="d"><use transform="matrix(0.06172839506172839,0,0,0.06172839506172839,0,0)" xlink:href="#G"/><use transform="matrix(0.06172839506172839,0,0,0.06172839506172839,15.987654320987653,0)" xlink:href="#H"/><use transform="matrix(0.06172839506172839,0,0,0.06172839506172839,20.864197530864196,0)" xlink:href="#t"/><use transform="matrix(0.06172839506172839,0,0,0.06172839506172839,33.20987654320987,0)" xlink:href="#I"/><use transform="matrix(0.06172839506172839,0,0,0.06172839506172839,45.55555555555555,0)" xlink:href="#x"/><use transform="matrix(0.06172839506172839,0,0,0.06172839506172839,57.90123456790123,0)" xlink:href="#J"/></g><path d="M106-169C34-169 62-67 57 0H25v-261h32l-1 103c12-21 28-36 61-36 89 0 53 116 60 194h-32v-121c2-32-8-49-39-48" id="K"/><path d="M143 0L79-87 56-68V0H24v-261h32v163l83-92h37l-77 82L181 0h-38" id="L"/><g id="e"><use transform="matrix(0.06172839506172839,0,0,0.06172839506172839,0,0)" xlink:href="#G"/><use transform="matrix(0.06172839506172839,0,0,0.06172839506172839,15.987654320987653,0)" xlink:href="#K"/><use transform="matrix(0.06172839506172839,0,0,0.06172839506172839,28.333333333333332,0)" xlink:href="#x"/><use transform="matrix(0.06172839506172839,0,0,0.06172839506172839,40.67901234567901,0)" xlink:href="#w"/><use transform="matrix(0.06172839506172839,0,0,0.06172839506172839,51.79012345679013,0)" xlink:href="#L"/><use transform="matrix(0.06172839506172839,0,0,0.06172839506172839,62.90123456790124,0)" xlink:href="#t"/><use transform="matrix(0.06172839506172839,0,0,0.06172839506172839,75.24691358024693,0)" xlink:href="#u"/><use transform="matrix(0.06172839506172839,0,0,0.06172839506172839,87.59259259259261,0)" xlink:href="#C"/></g><path d="M30 0v-248h33v221h125V0H30" id="M"/><g id="f"><use transform="matrix(0.06172839506172839,0,0,0.06172839506172839,0,0)" xlink:href="#M"/><use transform="matrix(0.06172839506172839,0,0,0.06172839506172839,12.345679012345679,0)" xlink:href="#B"/><use transform="matrix(0.06172839506172839,0,0,0.06172839506172839,17.22222222222222,0)" xlink:href="#I"/><use transform="matrix(0.06172839506172839,0,0,0.06172839506172839,29.5679012345679,0)" xlink:href="#C"/><use transform="matrix(0.06172839506172839,0,0,0.06172839506172839,35.74074074074074,0)" xlink:href="#x"/><use transform="matrix(0.06172839506172839,0,0,0.06172839506172839,48.08641975308642,0)" xlink:href="#v"/><use transform="matrix(0.06172839506172839,0,0,0.06172839506172839,55.432098765432094,0)" xlink:href="#J"/></g><g id="g"><use transform="matrix(0.06172839506172839,0,0,0.06172839506172839,0,0)" xlink:href="#G"/><use transform="matrix(0.06172839506172839,0,0,0.06172839506172839,15.987654320987653,0)" xlink:href="#K"/><use transform="matrix(0.06172839506172839,0,0,0.06172839506172839,28.333333333333332,0)" xlink:href="#x"/><use transform="matrix(0.06172839506172839,0,0,0.06172839506172839,40.67901234567901,0)" xlink:href="#w"/><use transform="matrix(0.06172839506172839,0,0,0.06172839506172839,51.79012345679013,0)" xlink:href="#L"/><use transform="matrix(0.06172839506172839,0,0,0.06172839506172839,62.90123456790124,0)" xlink:href="#A"/></g><path d="M160-131c35 5 61 23 61 61C221 17 115-2 30 0v-248c76 3 177-17 177 60 0 33-19 50-47 57zm-97-11c50-1 110 9 110-42 0-47-63-36-110-37v79zm0 115c55-2 124 14 124-45 0-56-70-42-124-44v89" id="N"/><path d="M85-194c31 0 48 13 60 33l-1-100h32l1 261h-30c-2-10 0-23-3-31C134-8 116 4 85 4 32 4 16-35 15-94c0-66 23-100 70-100zm9 24c-40 0-46 34-46 75 0 40 6 74 45 74 42 0 51-32 51-76 0-42-9-74-50-73" id="O"/><g id="h"><use transform="matrix(0.06172839506172839,0,0,0.06172839506172839,0,0)" xlink:href="#N"/><use transform="matrix(0.06172839506172839,0,0,0.06172839506172839,14.814814814814813,0)" xlink:href="#u"/><use transform="matrix(0.06172839506172839,0,0,0.06172839506172839,27.160493827160494,0)" xlink:href="#B"/><use transform="matrix(0.06172839506172839,0,0,0.06172839506172839,32.03703703703704,0)" xlink:href="#H"/><use transform="matrix(0.06172839506172839,0,0,0.06172839506172839,36.91358024691358,0)" xlink:href="#O"/></g><g id="i"><use transform="matrix(0.06172839506172839,0,0,0.06172839506172839,0,0)" xlink:href="#N"/><use transform="matrix(0.06172839506172839,0,0,0.06172839506172839,14.814814814814813,0)" xlink:href="#u"/><use transform="matrix(0.06172839506172839,0,0,0.06172839506172839,27.160493827160494,0)" xlink:href="#B"/><use transform="matrix(0.06172839506172839,0,0,0.06172839506172839,32.03703703703704,0)" xlink:href="#H"/><use transform="matrix(0.06172839506172839,0,0,0.06172839506172839,36.91358024691358,0)" xlink:href="#O"/></g><g id="j"><use transform="matrix(0.06172839506172839,0,0,0.06172839506172839,0,0)" xlink:href="#E"/><use transform="matrix(0.06172839506172839,0,0,0.06172839506172839,11.049382716049381,0)" xlink:href="#t"/><use transform="matrix(0.06172839506172839,0,0,0.06172839506172839,23.39506172839506,0)" xlink:href="#t"/><use transform="matrix(0.06172839506172839,0,0,0.06172839506172839,35.74074074074074,0)" xlink:href="#H"/><use transform="matrix(0.06172839506172839,0,0,0.06172839506172839,40.617283950617285,0)" xlink:href="#A"/></g><path d="M232-93c-1 65-40 97-104 97C67 4 28-28 28-90v-158h33c8 89-33 224 67 224 102 0 64-133 71-224h33v155" id="P"/><g id="k"><use transform="matrix(0.06172839506172839,0,0,0.06172839506172839,0,0)" xlink:href="#P"/><use transform="matrix(0.06172839506172839,0,0,0.06172839506172839,15.987654320987653,0)" xlink:href="#I"/><use transform="matrix(0.06172839506172839,0,0,0.06172839506172839,28.333333333333332,0)" xlink:href="#B"/><use transform="matrix(0.06172839506172839,0,0,0.06172839506172839,33.20987654320987,0)" xlink:href="#C"/></g><g id="l"><use transform="matrix(0.06172839506172839,0,0,0.06172839506172839,0,0)" xlink:href="#E"/><use transform="matrix(0.06172839506172839,0,0,0.06172839506172839,11.049382716049381,0)" xlink:href="#x"/><use transform="matrix(0.06172839506172839,0,0,0.06172839506172839,23.39506172839506,0)" xlink:href="#A"/><use transform="matrix(0.06172839506172839,0,0,0.06172839506172839,34.50617283950617,0)" xlink:href="#C"/><use transform="matrix(0.06172839506172839,0,0,0.06172839506172839,40.67901234567901,0)" xlink:href="#A"/></g><path d="M205 0l-28-72H64L36 0H1l101-248h38L239 0h-34zm-38-99l-47-123c-12 45-31 82-46 123h93" id="Q"/><path d="M141-36C126-15 110 5 73 4 37 3 15-17 15-53c-1-64 63-63 125-63 3-35-9-54-41-54-24 1-41 7-42 31l-33-3c5-37 33-52 76-52 45 0 72 20 72 64v82c-1 20 7 32 28 27v20c-31 9-61-2-59-35zM48-53c0 20 12 33 32 33 41-3 63-29 60-74-43 2-92-5-92 41" id="R"/><path d="M9 0v-24l116-142H16v-24h144v24L44-24h123V0H9" id="S"/><g id="m"><use transform="matrix(0.06172839506172839,0,0,0.06172839506172839,0,0)" xlink:href="#Q"/><use transform="matrix(0.06172839506172839,0,0,0.06172839506172839,14.814814814814813,0)" xlink:href="#I"/><use transform="matrix(0.06172839506172839,0,0,0.06172839506172839,27.160493827160494,0)" xlink:href="#R"/><use transform="matrix(0.06172839506172839,0,0,0.06172839506172839,39.50617283950617,0)" xlink:href="#H"/><use transform="matrix(0.06172839506172839,0,0,0.06172839506172839,44.382716049382715,0)" xlink:href="#D"/><use transform="matrix(0.06172839506172839,0,0,0.06172839506172839,55.49382716049382,0)" xlink:href="#S"/><use transform="matrix(0.06172839506172839,0,0,0.06172839506172839,66.60493827160494,0)" xlink:href="#x"/></g><path d="M101-234c-31-9-42 10-38 44h38v23H63V0H32v-167H5v-23h27c-7-52 17-82 69-68v24" id="T"/><g id="n"><use transform="matrix(0.06172839506172839,0,0,0.06172839506172839,0,0)" xlink:href="#Q"/><use transform="matrix(0.06172839506172839,0,0,0.06172839506172839,14.814814814814813,0)" xlink:href="#v"/><use transform="matrix(0.06172839506172839,0,0,0.06172839506172839,22.160493827160494,0)" xlink:href="#C"/><use transform="matrix(0.06172839506172839,0,0,0.06172839506172839,28.333333333333332,0)" xlink:href="#B"/><use transform="matrix(0.06172839506172839,0,0,0.06172839506172839,33.20987654320987,0)" xlink:href="#T"/><use transform="matrix(0.06172839506172839,0,0,0.06172839506172839,39.382716049382715,0)" xlink:href="#R"/><use transform="matrix(0.06172839506172839,0,0,0.06172839506172839,51.72839506172839,0)" xlink:href="#w"/><use transform="matrix(0.06172839506172839,0,0,0.06172839506172839,62.839506172839506,0)" xlink:href="#C"/></g><path d="M30-248c87 1 191-15 191 75 0 78-77 80-158 76V0H30v-248zm33 125c57 0 124 11 124-50 0-59-68-47-124-48v98" id="U"/><g id="o"><use transform="matrix(0.06172839506172839,0,0,0.06172839506172839,0,0)" xlink:href="#U"/><use transform="matrix(0.06172839506172839,0,0,0.06172839506172839,14.814814814814813,0)" xlink:href="#u"/><use transform="matrix(0.06172839506172839,0,0,0.06172839506172839,27.160493827160494,0)" xlink:href="#A"/><use transform="matrix(0.06172839506172839,0,0,0.06172839506172839,38.27160493827161,0)" xlink:href="#K"/></g><g id="p"><use transform="matrix(0.06172839506172839,0,0,0.06172839506172839,0,0)" xlink:href="#C"/><use transform="matrix(0.06172839506172839,0,0,0.06172839506172839,6.172839506172839,0)" xlink:href="#t"/></g><g id="q"><use transform="matrix(0.06172839506172839,0,0,0.06172839506172839,0,0)" xlink:href="#y"/><use transform="matrix(0.06172839506172839,0,0,0.06172839506172839,15.987654320987653,0)" xlink:href="#x"/><use transform="matrix(0.06172839506172839,0,0,0.06172839506172839,28.333333333333332,0)" xlink:href="#z"/><use transform="matrix(0.06172839506172839,0,0,0.06172839506172839,40.67901234567901,0)" xlink:href="#t"/><use transform="matrix(0.06172839506172839,0,0,0.06172839506172839,53.02469135802469,0)" xlink:href="#A"/><use transform="matrix(0.06172839506172839,0,0,0.06172839506172839,64.1358024691358,0)" xlink:href="#B"/><use transform="matrix(0.06172839506172839,0,0,0.06172839506172839,69.01234567901234,0)" xlink:href="#C"/><use transform="matrix(0.06172839506172839,0,0,0.06172839506172839,75.18518518518518,0)" xlink:href="#t"/><use transform="matrix(0.06172839506172839,0,0,0.06172839506172839,87.53086419753086,0)" xlink:href="#v"/><use transform="matrix(0.06172839506172839,0,0,0.06172839506172839,94.87654320987654,0)" xlink:href="#D"/></g><g id="r"><use transform="matrix(0.06172839506172839,0,0,0.06172839506172839,0,0)" xlink:href="#E"/><use transform="matrix(0.06172839506172839,0,0,0.06172839506172839,11.049382716049381,0)" xlink:href="#x"/><use transform="matrix(0.06172839506172839,0,0,0.06172839506172839,23.39506172839506,0)" xlink:href="#A"/><use transform="matrix(0.06172839506172839,0,0,0.06172839506172839,34.50617283950617,0)" xlink:href="#C"/></g></defs></g></svg>