<svg xmlns="http://www.w3.org/2000/svg" xmlns:xlink="http://www.w3.org/1999/xlink" xmlns:lucid="lucid" width="1152" height="480"><g transform="translate(0 0)" lucid:page-tab-id="0_0"><path d="M220 404c0 8.84-26.86 16-60 16s-60-7.16-60-16V276c0-8.84 26.86-16 60-16s60 7.16 60 16z" stroke="#000" stroke-width="2" fill="#fff"/><path d="M220 276c0 8.84-26.86 16-60 16s-60-7.16-60-16" stroke="#000" stroke-width="2" fill="none"/><use xlink:href="#a" transform="matrix(1,0,0,1,105,297) translate(20.49382716049383 50.111111111111114)"/><use xlink:href="#b" transform="matrix(1,0,0,1,105,297) translate(2.0061728395061706 76.77777777777777)"/><path d="M112 80h96l32 60-32 60h-96l-32-60z" stroke="#000" stroke-width="2" fill="#fff"/><use xlink:href="#c" transform="matrix(1,0,0,1,85,85) translate(40.339506172839506 59.44444444444444)"/><path d="M300 80h160v120H300z" stroke="#000" stroke-width="2" fill="#fff"/><use xlink:href="#d" transform="matrix(1,0,0,1,305,85) translate(50.30864197530864 59.44444444444444)"/><path d="M241.13 140h39.63" stroke="#000" stroke-width="2" fill="none"/><path d="M241.13 141h-1.66l.53-1-.53-1h1.66zM295.76 140l-14.26 4.64v-9.28z"/><path d="M299 140l-18.5 6v-12zm-16.5 3.26l10.03-3.26-10.03-3.26z"/><path d="M520 80h160v120H520z" stroke="#000" stroke-width="2" fill="#fff"/><use xlink:href="#e" transform="matrix(1,0,0,1,525,85) translate(28.148148148148152 46.111111111111114)"/><use xlink:href="#f" transform="matrix(1,0,0,1,525,85) translate(103.33333333333333 46.111111111111114)"/><use xlink:href="#g" transform="matrix(1,0,0,1,525,85) translate(54.660493827160494 72.77777777777777)"/><path d="M860 140c0 33.14-26.86 60-60 60s-60-26.86-60-60 26.86-60 60-60 60 26.86 60 60z" stroke="#000" stroke-width="2" fill="#fff"/><use xlink:href="#h" transform="matrix(1,0,0,1,745,85) translate(18.641975308641975 46.111111111111114)"/><use xlink:href="#i" transform="matrix(1,0,0,1,745,85) translate(11.23456790123457 72.77777777777777)"/><path d="M461 140h39.76" stroke="#000" stroke-width="2" fill="none"/><path d="M461 141h-1v-2h1zM515.76 140l-14.26 4.64v-9.28z"/><path d="M519 140l-18.5 6v-12zm-16.5 3.26l10.03-3.26-10.03-3.26z"/><path d="M681 140h39.76" stroke="#000" stroke-width="2" fill="none"/><path d="M681 141h-1v-2h1zM735.76 140l-14.26 4.64v-9.28z"/><path d="M739 140l-18.5 6v-12zm-16.5 3.26l10.03-3.26-10.03-3.26z"/><path d="M920 80h160v120H920z" stroke="#000" stroke-width="2" fill="#fff"/><use xlink:href="#e" transform="matrix(1,0,0,1,925,85) translate(28.148148148148152 46.111111111111114)"/><use xlink:href="#f" transform="matrix(1,0,0,1,925,85) translate(103.33333333333333 46.111111111111114)"/><use xlink:href="#j" transform="matrix(1,0,0,1,925,85) translate(51.574074074074076 72.77777777777777)"/><path d="M861 140h39.76" stroke="#000" stroke-width="2" fill="none"/><path d="M861 141h-1.04l.04-1-.04-1H861zM915.76 140l-14.26 4.64v-9.28z"/><path d="M919 140l-18.5 6v-12zm-16.5 3.26l10.03-3.26-10.03-3.26z"/><path d="M300 280h160v120H300z" fill="#fff"/><path d="M305.96 280h2m4.96 0h2m4.96 0h1.98m4.97 0h2m4.96 0h1.98m4.97 0h1.98m4.97 0h2m4.96 0h2m4.95 0h2m4.97 0h2m4.96 0h2m4.95 0h2m4.96 0h2m4.96 0h2m4.95 0h2m4.96 0h2m4.97 0h1.98m4.97 0h2m4.96 0h2m4.96 0h1.98m4.97 0h1.98m4.97 0h2m4.96 0h1v1m0 5.05v2.02m0 5.04v2.03m0 5.04v2m0 5.06v2m0 5.06v2m0 5.04v2.02m0 5.04v2.02m0 5.04v2.02m0 5.04v2.02m0 5.04v2.02m0 5.04v2.02m0 5.04v2m0 5.06v2m0 5.06v2m0 5.05v2.02m0 5.03v2.02m0 5.04v1h-1m-4.96 0h-2m-4.96 0h-2m-4.96 0h-1.98m-4.97 0h-2m-4.96 0h-1.98m-4.97 0h-1.98m-4.97 0h-2m-4.96 0h-2m-4.95 0h-2m-4.97 0h-2m-4.96 0h-2m-4.95 0h-2m-4.96 0h-2m-4.96 0h-2m-4.95 0h-2m-4.96 0h-2m-4.97 0h-1.98m-4.97 0h-2m-4.96 0h-2m-4.96 0h-1.98m-4.97 0h-1.98m-4.97 0h-2m-4.96 0h-1v-1m0-5.05v-2.02m0-5.04v-2.03m0-5.04v-2m0-5.06v-2m0-5.06v-2m0-5.04v-2.02m0-5.04v-2.02m0-5.04v-2.02m0-5.04v-2.02m0-5.04v-2.02m0-5.04v-2.02m0-5.04v-2m0-5.06v-2m0-5.06v-2m0-5.05v-2.02m0-5.03v-2.02m0-5.04v-1h1" stroke="#000" stroke-width="2" fill="none"/><path d="M337.4 347.4h3.4c1.7 0 3.1.6 3.6 2.3.8 2.7 1.9 4.8 3.2 7.2.9 1.5.7 3.2-.5 4.4l-2.5 2.5c-.7.7-.7 1.9 0 2.6l7.9 7.9c.7.7 1.9.7 2.6 0l2.5-2.5c1.2-1.2 2.9-1.3 4.4-.5 2.4 1.3 5 2.4 7.8 3.2 1.6.5 2.8 1.9 2.8 3.6v3.4c0 1 .8 3 1.8 3h11.2c1 0 1.8-2 1.8-3v-3.4c0-1.7 1.2-3.1 2.8-3.6 2.8-.8 5.4-1.9 7.8-3.2 1.5-.8 3.2-.7 4.4.5l2.5 2.5c.7.7 1.9.7 2.6 0l7.9-7.9c.7-.7.7-1.8 0-2.5l-2.5-2.5c-1.2-1.1-1.3-2.8-.5-4.2 1.3-2.4 2.4-4.8 3.2-7.5.5-1.7 1.9-2.3 3.6-2.3h3.4c1 0 1.8-1.9 1.8-2.9v-11.1c0-1.1-.8-.8-1.8-.8h-3.4c-1.7 0-3.1-1.7-3.6-3.3-.8-2.8-1.9-6-3.2-8.4-.9-1.4-.7-3.2.5-4.4l2.5-2.5c.7-.7.7-1.9 0-2.6l-7.9-7.8c-.7-.8-1.9-.8-2.6 0l-2.5 2.4c-1.2 1.2-2.9 1.4-4.4.6-2.4-1.4-5-2.5-7.8-3.3-1.6-.5-2.8-1.9-2.8-3.6v-3.4c0-1-.8-.7-1.8-.7h-11.2c-1 0-1.8-.3-1.8.7v3.4c0 1.7-1.2 3.1-2.8 3.6-2.8.8-5.4 1.9-7.8 3.3-1.5.8-3.2.6-4.4-.6l-2.5-2.4c-.7-.8-1.9-.8-2.6 0l-7.9 7.8c-.7.8-.7 2 0 2.7l2.5 2.6c1.2 1.1 1.4 3 .5 4.5-1.3 2.4-2.4 5.3-3.2 8.1-.5 1.6-1.9 3.3-3.6 3.3h-3.4c-1 0-1.8-.3-1.8.8v11.1c0 1 .8 2.9 1.8 2.9m42.6-30.7c12.3 0 22.2 9.9 22.2 22.2 0 12.3-9.9 22.2-22.2 22.2-12.3 0-22.2-9.9-22.2-22.2 0-12.3 9.9-22.2 22.2-22.2" fill="#f3f3f3"/><use xlink:href="#k" transform="matrix(1,0,0,1,305,285) translate(50.30864197530864 46.111111111111114)"/><use xlink:href="#l" transform="matrix(1,0,0,1,305,285) translate(49.135802469135804 72.77777777777777)"/><path d="M520 280h160v120H520z" fill="#fff"/><path d="M525.96 280h2m4.96 0h2m4.96 0h1.98m4.97 0h2m4.96 0h1.98m4.97 0h1.98m4.97 0h2m4.96 0h2m4.95 0h2m4.97 0h2m4.96 0h2m4.95 0h2m4.96 0h2m4.96 0h2m4.95 0h2m4.96 0h2m4.97 0h1.98m4.97 0h2m4.96 0h2m4.96 0h1.98m4.97 0h1.98m4.97 0h2m4.96 0h1v1m0 5.05v2.02m0 5.04v2.03m0 5.04v2m0 5.06v2m0 5.06v2m0 5.04v2.02m0 5.04v2.02m0 5.04v2.02m0 5.04v2.02m0 5.04v2.02m0 5.04v2.02m0 5.04v2m0 5.06v2m0 5.06v2m0 5.05v2.02m0 5.03v2.02m0 5.04v1h-1m-4.96 0h-2m-4.96 0h-2m-4.96 0h-1.98m-4.97 0h-2m-4.96 0h-1.98m-4.97 0h-1.98m-4.97 0h-2m-4.96 0h-2m-4.95 0h-2m-4.97 0h-2m-4.96 0h-2m-4.95 0h-2m-4.96 0h-2m-4.96 0h-2m-4.95 0h-2m-4.96 0h-2m-4.97 0h-1.98m-4.97 0h-2m-4.96 0h-2m-4.96 0h-1.98m-4.97 0h-1.98m-4.97 0h-2m-4.96 0h-1v-1m0-5.05v-2.02m0-5.04v-2.03m0-5.04v-2m0-5.06v-2m0-5.06v-2m0-5.04v-2.02m0-5.04v-2.02m0-5.04v-2.02m0-5.04v-2.02m0-5.04v-2.02m0-5.04v-2.02m0-5.04v-2m0-5.06v-2m0-5.06v-2m0-5.05v-2.02m0-5.03v-2.02m0-5.04v-1h1" stroke="#000" stroke-width="2" fill="none"/><path d="M557.4 347.4h3.4c1.7 0 3.1.6 3.6 2.3.8 2.7 1.9 4.8 3.2 7.2.9 1.5.7 3.2-.5 4.4l-2.5 2.5c-.7.7-.7 1.9 0 2.6l7.9 7.9c.7.7 1.9.7 2.6 0l2.5-2.5c1.2-1.2 2.9-1.3 4.4-.5 2.4 1.3 5 2.4 7.8 3.2 1.6.5 2.8 1.9 2.8 3.6v3.4c0 1 .8 3 1.8 3h11.2c1 0 1.8-2 1.8-3v-3.4c0-1.7 1.2-3.1 2.8-3.6 2.8-.8 5.4-1.9 7.8-3.2 1.5-.8 3.2-.7 4.4.5l2.5 2.5c.7.7 1.9.7 2.6 0l7.9-7.9c.7-.7.7-1.8 0-2.5l-2.5-2.5c-1.2-1.1-1.3-2.8-.5-4.2 1.3-2.4 2.4-4.8 3.2-7.5.5-1.7 1.9-2.3 3.6-2.3h3.4c1 0 1.8-1.9 1.8-2.9v-11.1c0-1.1-.8-.8-1.8-.8h-3.4c-1.7 0-3.1-1.7-3.6-3.3-.8-2.8-1.9-6-3.2-8.4-.9-1.4-.7-3.2.5-4.4l2.5-2.5c.7-.7.7-1.9 0-2.6l-7.9-7.8c-.7-.8-1.9-.8-2.6 0l-2.5 2.4c-1.2 1.2-2.9 1.4-4.4.6-2.4-1.4-5-2.5-7.8-3.3-1.6-.5-2.8-1.9-2.8-3.6v-3.4c0-1-.8-.7-1.8-.7h-11.2c-1 0-1.8-.3-1.8.7v3.4c0 1.7-1.2 3.1-2.8 3.6-2.8.8-5.4 1.9-7.8 3.3-1.5.8-3.2.6-4.4-.6l-2.5-2.4c-.7-.8-1.9-.8-2.6 0l-7.9 7.8c-.7.8-.7 2 0 2.7l2.5 2.6c1.2 1.1 1.4 3 .5 4.5-1.3 2.4-2.4 5.3-3.2 8.1-.5 1.6-1.9 3.3-3.6 3.3h-3.4c-1 0-1.8-.3-1.8.8v11.1c0 1 .8 2.9 1.8 2.9m42.6-30.7c12.3 0 22.2 9.9 22.2 22.2 0 12.3-9.9 22.2-22.2 22.2-12.3 0-22.2-9.9-22.2-22.2 0-12.3 9.9-22.2 22.2-22.2" fill="#f3f3f3"/><use xlink:href="#m" transform="matrix(1,0,0,1,525,285) translate(39.876543209876544 46.111111111111114)"/><use xlink:href="#l" transform="matrix(1,0,0,1,525,285) translate(49.135802469135804 72.77777777777777)"/><path d="M920 280h160v120H920z" fill="#fff"/><path d="M925.96 280h2m4.96 0h2m4.96 0h1.98m4.97 0h2m4.96 0h1.98m4.97 0h1.98m4.97 0h2m4.96 0h2m4.95 0h2m4.97 0h2m4.96 0h2m4.95 0h2m4.96 0h2m4.96 0h2m4.95 0h2m4.96 0h2m4.97 0h1.98m4.97 0h2m4.96 0h2m4.96 0h1.98m4.97 0h1.98m4.97 0h2m4.96 0h1v1m0 5.05v2.02m0 5.04v2.03m0 5.04v2m0 5.06v2m0 5.06v2m0 5.04v2.02m0 5.04v2.02m0 5.04v2.02m0 5.04v2.02m0 5.04v2.02m0 5.04v2.02m0 5.04v2m0 5.06v2m0 5.06v2m0 5.05v2.02m0 5.03v2.02m0 5.04v1h-1m-4.96 0h-2m-4.96 0h-2m-4.96 0h-1.98m-4.97 0h-2m-4.96 0h-1.98m-4.97 0h-1.98m-4.97 0h-2m-4.96 0h-2m-4.95 0h-2m-4.97 0h-2m-4.96 0h-2m-4.95 0h-2m-4.96 0h-2m-4.96 0h-2m-4.95 0h-2m-4.96 0h-2m-4.97 0h-1.98m-4.97 0h-2m-4.96 0h-2m-4.96 0h-1.98m-4.97 0h-1.98m-4.97 0h-2m-4.96 0h-1v-1m0-5.05v-2.02m0-5.04v-2.03m0-5.04v-2m0-5.06v-2m0-5.06v-2m0-5.04v-2.02m0-5.04v-2.02m0-5.04v-2.02m0-5.04v-2.02m0-5.04v-2.02m0-5.04v-2.02m0-5.04v-2m0-5.06v-2m0-5.06v-2m0-5.05v-2.02m0-5.03v-2.02m0-5.04v-1h1" stroke="#000" stroke-width="2" fill="none"/><path d="M957.4 347.4h3.4c1.7 0 3.1.6 3.6 2.3.8 2.7 1.9 4.8 3.2 7.2.9 1.5.7 3.2-.5 4.4l-2.5 2.5c-.7.7-.7 1.9 0 2.6l7.9 7.9c.7.7 1.9.7 2.6 0l2.5-2.5c1.2-1.2 2.9-1.3 4.4-.5 2.4 1.3 5 2.4 7.8 3.2 1.6.5 2.8 1.9 2.8 3.6v3.4c0 1 .8 3 1.8 3h11.2c1 0 1.8-2 1.8-3v-3.4c0-1.7 1.2-3.1 2.8-3.6 2.8-.8 5.4-1.9 7.8-3.2 1.5-.8 3.2-.7 4.4.5l2.5 2.5c.7.7 1.9.7 2.6 0l7.9-7.9c.7-.7.7-1.8 0-2.5l-2.5-2.5c-1.2-1.1-1.3-2.8-.5-4.2 1.3-2.4 2.4-4.8 3.2-7.5.5-1.7 1.9-2.3 3.6-2.3h3.4c1 0 1.8-1.9 1.8-2.9v-11.1c0-1.1-.8-.8-1.8-.8h-3.4c-1.7 0-3.1-1.7-3.6-3.3-.8-2.8-1.9-6-3.2-8.4-.9-1.4-.7-3.2.5-4.4l2.5-2.5c.7-.7.7-1.9 0-2.6l-7.9-7.8c-.7-.8-1.9-.8-2.6 0l-2.5 2.4c-1.2 1.2-2.9 1.4-4.4.6-2.4-1.4-5-2.5-7.8-3.3-1.6-.5-2.8-1.9-2.8-3.6v-3.4c0-1-.8-.7-1.8-.7h-11.2c-1 0-1.8-.3-1.8.7v3.4c0 1.7-1.2 3.1-2.8 3.6-2.8.8-5.4 1.9-7.8 3.3-1.5.8-3.2.6-4.4-.6l-2.5-2.4c-.7-.8-1.9-.8-2.6 0l-7.9 7.8c-.7.8-.7 2 0 2.7l2.5 2.6c1.2 1.1 1.4 3 .5 4.5-1.3 2.4-2.4 5.3-3.2 8.1-.5 1.6-1.9 3.3-3.6 3.3h-3.4c-1 0-1.8-.3-1.8.8v11.1c0 1 .8 2.9 1.8 2.9m42.6-30.7c12.3 0 22.2 9.9 22.2 22.2 0 12.3-9.9 22.2-22.2 22.2-12.3 0-22.2-9.9-22.2-22.2 0-12.3 9.9-22.2 22.2-22.2" fill="#f3f3f3"/><use xlink:href="#n" transform="matrix(1,0,0,1,925,285) translate(39.25925925925926 46.111111111111114)"/><use xlink:href="#l" transform="matrix(1,0,0,1,925,285) translate(49.135802469135804 72.77777777777777)"/><path d="M680 200h240v60H680z" stroke="#000" stroke-opacity="0" stroke-width="2" fill="#fff" fill-opacity="0"/><use xlink:href="#o" transform="matrix(1,0,0,1,685,205) translate(77.6 28.6)"/><path d="M380 201v60.76" stroke="#000" stroke-width="2" fill="none"/><path d="M381 201h-2v-1h2zM380 276.76l-4.64-14.26h9.28z"/><path d="M380 280l-6-18.5h12zm-3.26-16.5l3.26 10.03 3.26-10.03z"/><path d="M600 201v60.76" stroke="#000" stroke-width="2" fill="none"/><path d="M601 201h-2v-1h2zM600 276.76l-4.64-14.26h9.28z"/><path d="M600 280l-6-18.5h12zm-3.26-16.5l3.26 10.03 3.26-10.03z"/><path d="M1000 201v60.76" stroke="#000" stroke-width="2" fill="none"/><path d="M1001 201h-2v-1h2zM1000 276.76l-4.64-14.26h9.28z"/><path d="M1000 280l-6-18.5h12zm-3.26-16.5l3.26 10.03 3.26-10.03z"/><path d="M160 201v39.76" stroke="#000" stroke-width="2" fill="none"/><path d="M161 201h-2v-1h2zM160 255.76l-4.64-14.26h9.28z"/><path d="M160 259l-6-18.5h12zm-3.26-16.5l3.26 10.03 3.26-10.03z"/><defs><path d="M205 0l-28-72H64L36 0H1l101-248h38L239 0h-34zm-38-99l-47-123c-12 45-31 82-46 123h93" id="p"/><path d="M114-163C36-179 61-72 57 0H25l-1-190h30c1 12-1 29 2 39 6-27 23-49 58-41v29" id="q"/><path d="M59-47c-2 24 18 29 38 22v24C64 9 27 4 27-40v-127H5v-23h24l9-43h21v43h35v23H59v120" id="r"/><path d="M24-231v-30h32v30H24zM24 0v-190h32V0H24" id="s"/><path d="M101-234c-31-9-42 10-38 44h38v23H63V0H32v-167H5v-23h27c-7-52 17-82 69-68v24" id="t"/><path d="M141-36C126-15 110 5 73 4 37 3 15-17 15-53c-1-64 63-63 125-63 3-35-9-54-41-54-24 1-41 7-42 31l-33-3c5-37 33-52 76-52 45 0 72 20 72 64v82c-1 20 7 32 28 27v20c-31 9-61-2-59-35zM48-53c0 20 12 33 32 33 41-3 63-29 60-74-43 2-92-5-92 41" id="u"/><path d="M96-169c-40 0-48 33-48 73s9 75 48 75c24 0 41-14 43-38l32 2c-6 37-31 61-74 61-59 0-76-41-82-99-10-93 101-131 147-64 4 7 5 14 7 22l-32 3c-4-21-16-35-41-35" id="v"/><g id="a"><use transform="matrix(0.06172839506172839,0,0,0.06172839506172839,0,0)" xlink:href="#p"/><use transform="matrix(0.06172839506172839,0,0,0.06172839506172839,14.814814814814813,0)" xlink:href="#q"/><use transform="matrix(0.06172839506172839,0,0,0.06172839506172839,22.160493827160494,0)" xlink:href="#r"/><use transform="matrix(0.06172839506172839,0,0,0.06172839506172839,28.333333333333332,0)" xlink:href="#s"/><use transform="matrix(0.06172839506172839,0,0,0.06172839506172839,33.20987654320987,0)" xlink:href="#t"/><use transform="matrix(0.06172839506172839,0,0,0.06172839506172839,39.382716049382715,0)" xlink:href="#u"/><use transform="matrix(0.06172839506172839,0,0,0.06172839506172839,51.72839506172839,0)" xlink:href="#v"/><use transform="matrix(0.06172839506172839,0,0,0.06172839506172839,62.839506172839506,0)" xlink:href="#r"/></g><path d="M233-177c-1 41-23 64-60 70L243 0h-38l-65-103H63V0H30v-248c88 3 205-21 203 71zM63-129c60-2 137 13 137-47 0-61-80-42-137-45v92" id="w"/><path d="M100-194c63 0 86 42 84 106H49c0 40 14 67 53 68 26 1 43-12 49-29l28 8c-11 28-37 45-77 45C44 4 14-33 15-96c1-61 26-98 85-98zm52 81c6-60-76-77-97-28-3 7-6 17-6 28h103" id="x"/><path d="M115-194c55 1 70 41 70 98S169 2 115 4C84 4 66-9 55-30l1 105H24l-1-265h31l2 30c10-21 28-34 59-34zm-8 174c40 0 45-34 45-75s-6-73-45-74c-42 0-51 32-51 76 0 43 10 73 51 73" id="y"/><path d="M100-194c62-1 85 37 85 99 1 63-27 99-86 99S16-35 15-95c0-66 28-99 85-99zM99-20c44 1 53-31 53-75 0-43-8-75-51-75s-53 32-53 75 10 74 51 75" id="z"/><path d="M135-143c-3-34-86-38-87 0 15 53 115 12 119 90S17 21 10-45l28-5c4 36 97 45 98 0-10-56-113-15-118-90-4-57 82-63 122-42 12 7 21 19 24 35" id="A"/><path d="M179-190L93 31C79 59 56 82 12 73V49c39 6 53-20 64-50L1-190h34L92-34l54-156h33" id="B"/><g id="b"><use transform="matrix(0.06172839506172839,0,0,0.06172839506172839,0,0)" xlink:href="#w"/><use transform="matrix(0.06172839506172839,0,0,0.06172839506172839,15.987654320987653,0)" xlink:href="#x"/><use transform="matrix(0.06172839506172839,0,0,0.06172839506172839,28.333333333333332,0)" xlink:href="#y"/><use transform="matrix(0.06172839506172839,0,0,0.06172839506172839,40.67901234567901,0)" xlink:href="#z"/><use transform="matrix(0.06172839506172839,0,0,0.06172839506172839,53.02469135802469,0)" xlink:href="#A"/><use transform="matrix(0.06172839506172839,0,0,0.06172839506172839,64.1358024691358,0)" xlink:href="#s"/><use transform="matrix(0.06172839506172839,0,0,0.06172839506172839,69.01234567901234,0)" xlink:href="#r"/><use transform="matrix(0.06172839506172839,0,0,0.06172839506172839,75.18518518518518,0)" xlink:href="#z"/><use transform="matrix(0.06172839506172839,0,0,0.06172839506172839,87.53086419753086,0)" xlink:href="#q"/><use transform="matrix(0.06172839506172839,0,0,0.06172839506172839,94.87654320987654,0)" xlink:href="#B"/></g><path d="M127-220V0H93v-220H8v-28h204v28h-85" id="C"/><path d="M177-190C167-65 218 103 67 71c-23-6-38-20-44-43l32-5c15 47 100 32 89-28v-30C133-14 115 1 83 1 29 1 15-40 15-95c0-56 16-97 71-98 29-1 48 16 59 35 1-10 0-23 2-32h30zM94-22c36 0 50-32 50-73 0-42-14-75-50-75-39 0-46 34-46 75s6 73 46 73" id="D"/><g id="c"><use transform="matrix(0.06172839506172839,0,0,0.06172839506172839,0,0)" xlink:href="#C"/><use transform="matrix(0.06172839506172839,0,0,0.06172839506172839,12.716049382716047,0)" xlink:href="#q"/><use transform="matrix(0.06172839506172839,0,0,0.06172839506172839,20.061728395061728,0)" xlink:href="#s"/><use transform="matrix(0.06172839506172839,0,0,0.06172839506172839,24.938271604938272,0)" xlink:href="#D"/><use transform="matrix(0.06172839506172839,0,0,0.06172839506172839,37.28395061728395,0)" xlink:href="#D"/><use transform="matrix(0.06172839506172839,0,0,0.06172839506172839,49.629629629629626,0)" xlink:href="#x"/><use transform="matrix(0.06172839506172839,0,0,0.06172839506172839,61.9753086419753,0)" xlink:href="#q"/></g><path d="M30-248c87 1 191-15 191 75 0 78-77 80-158 76V0H30v-248zm33 125c57 0 124 11 124-50 0-59-68-47-124-48v98" id="E"/><path d="M143 0L79-87 56-68V0H24v-261h32v163l83-92h37l-77 82L181 0h-38" id="F"/><g id="d"><use transform="matrix(0.06172839506172839,0,0,0.06172839506172839,0,0)" xlink:href="#E"/><use transform="matrix(0.06172839506172839,0,0,0.06172839506172839,14.814814814814813,0)" xlink:href="#u"/><use transform="matrix(0.06172839506172839,0,0,0.06172839506172839,27.160493827160494,0)" xlink:href="#v"/><use transform="matrix(0.06172839506172839,0,0,0.06172839506172839,38.27160493827161,0)" xlink:href="#F"/></g><path d="M30-248c118-7 216 8 213 122C240-48 200 0 122 0H30v-248zM63-27c89 8 146-16 146-99s-60-101-146-95v194" id="G"/><path d="M24 0v-261h32V0H24" id="H"/><g id="e"><use transform="matrix(0.06172839506172839,0,0,0.06172839506172839,0,0)" xlink:href="#G"/><use transform="matrix(0.06172839506172839,0,0,0.06172839506172839,15.987654320987653,0)" xlink:href="#x"/><use transform="matrix(0.06172839506172839,0,0,0.06172839506172839,28.333333333333332,0)" xlink:href="#y"/><use transform="matrix(0.06172839506172839,0,0,0.06172839506172839,40.67901234567901,0)" xlink:href="#H"/><use transform="matrix(0.06172839506172839,0,0,0.06172839506172839,45.55555555555556,0)" xlink:href="#z"/><use transform="matrix(0.06172839506172839,0,0,0.06172839506172839,57.901234567901234,0)" xlink:href="#B"/></g><g id="f"><use transform="matrix(0.06172839506172839,0,0,0.06172839506172839,0,0)" xlink:href="#r"/><use transform="matrix(0.06172839506172839,0,0,0.06172839506172839,6.172839506172839,0)" xlink:href="#z"/></g><g id="g"><use transform="matrix(0.06172839506172839,0,0,0.06172839506172839,0,0)" xlink:href="#C"/><use transform="matrix(0.06172839506172839,0,0,0.06172839506172839,11.049382716049381,0)" xlink:href="#x"/><use transform="matrix(0.06172839506172839,0,0,0.06172839506172839,23.39506172839506,0)" xlink:href="#A"/><use transform="matrix(0.06172839506172839,0,0,0.06172839506172839,34.50617283950617,0)" xlink:href="#r"/></g><path d="M240 0l2-218c-23 76-54 145-80 218h-23L58-218 59 0H30v-248h44l77 211c21-75 51-140 76-211h43V0h-30" id="I"/><path d="M117-194c89-4 53 116 60 194h-32v-121c0-31-8-49-39-48C34-167 62-67 57 0H25l-1-190h30c1 10-1 24 2 32 11-22 29-35 61-36" id="J"/><path d="M84 4C-5 8 30-112 23-190h32v120c0 31 7 50 39 49 72-2 45-101 50-169h31l1 190h-30c-1-10 1-25-2-33-11 22-28 36-60 37" id="K"/><g id="h"><use transform="matrix(0.06172839506172839,0,0,0.06172839506172839,0,0)" xlink:href="#I"/><use transform="matrix(0.06172839506172839,0,0,0.06172839506172839,18.456790123456788,0)" xlink:href="#u"/><use transform="matrix(0.06172839506172839,0,0,0.06172839506172839,30.80246913580247,0)" xlink:href="#J"/><use transform="matrix(0.06172839506172839,0,0,0.06172839506172839,43.148148148148145,0)" xlink:href="#K"/><use transform="matrix(0.06172839506172839,0,0,0.06172839506172839,55.49382716049382,0)" xlink:href="#u"/><use transform="matrix(0.06172839506172839,0,0,0.06172839506172839,67.8395061728395,0)" xlink:href="#H"/></g><path d="M108 0H70L1-190h34L89-25l56-165h34" id="L"/><g id="i"><use transform="matrix(0.06172839506172839,0,0,0.06172839506172839,0,0)" xlink:href="#p"/><use transform="matrix(0.06172839506172839,0,0,0.06172839506172839,14.814814814814813,0)" xlink:href="#y"/><use transform="matrix(0.06172839506172839,0,0,0.06172839506172839,27.160493827160494,0)" xlink:href="#y"/><use transform="matrix(0.06172839506172839,0,0,0.06172839506172839,39.50617283950617,0)" xlink:href="#q"/><use transform="matrix(0.06172839506172839,0,0,0.06172839506172839,46.85185185185185,0)" xlink:href="#z"/><use transform="matrix(0.06172839506172839,0,0,0.06172839506172839,59.197530864197525,0)" xlink:href="#L"/><use transform="matrix(0.06172839506172839,0,0,0.06172839506172839,70.30864197530863,0)" xlink:href="#u"/><use transform="matrix(0.06172839506172839,0,0,0.06172839506172839,82.65432098765432,0)" xlink:href="#H"/></g><path d="M85-194c31 0 48 13 60 33l-1-100h32l1 261h-30c-2-10 0-23-3-31C134-8 116 4 85 4 32 4 16-35 15-94c0-66 23-100 70-100zm9 24c-40 0-46 34-46 75 0 40 6 74 45 74 42 0 51-32 51-76 0-42-9-74-50-73" id="M"/><g id="j"><use transform="matrix(0.06172839506172839,0,0,0.06172839506172839,0,0)" xlink:href="#E"/><use transform="matrix(0.06172839506172839,0,0,0.06172839506172839,14.814814814814813,0)" xlink:href="#q"/><use transform="matrix(0.06172839506172839,0,0,0.06172839506172839,22.160493827160494,0)" xlink:href="#z"/><use transform="matrix(0.06172839506172839,0,0,0.06172839506172839,34.50617283950617,0)" xlink:href="#M"/></g><g id="k"><use transform="matrix(0.06172839506172839,0,0,0.06172839506172839,0,0)" xlink:href="#E"/><use transform="matrix(0.06172839506172839,0,0,0.06172839506172839,14.814814814814813,0)" xlink:href="#u"/><use transform="matrix(0.06172839506172839,0,0,0.06172839506172839,27.160493827160494,0)" xlink:href="#v"/><use transform="matrix(0.06172839506172839,0,0,0.06172839506172839,38.27160493827161,0)" xlink:href="#F"/></g><g id="l"><use transform="matrix(0.06172839506172839,0,0,0.06172839506172839,0,0)" xlink:href="#C"/><use transform="matrix(0.06172839506172839,0,0,0.06172839506172839,11.049382716049381,0)" xlink:href="#z"/><use transform="matrix(0.06172839506172839,0,0,0.06172839506172839,23.39506172839506,0)" xlink:href="#z"/><use transform="matrix(0.06172839506172839,0,0,0.06172839506172839,35.74074074074074,0)" xlink:href="#H"/><use transform="matrix(0.06172839506172839,0,0,0.06172839506172839,40.617283950617285,0)" xlink:href="#A"/></g><g id="m"><use transform="matrix(0.06172839506172839,0,0,0.06172839506172839,0,0)" xlink:href="#C"/><use transform="matrix(0.06172839506172839,0,0,0.06172839506172839,11.049382716049381,0)" xlink:href="#x"/><use transform="matrix(0.06172839506172839,0,0,0.06172839506172839,23.39506172839506,0)" xlink:href="#A"/><use transform="matrix(0.06172839506172839,0,0,0.06172839506172839,34.50617283950617,0)" xlink:href="#r"/><use transform="matrix(0.06172839506172839,0,0,0.06172839506172839,40.67901234567901,0)" xlink:href="#s"/><use transform="matrix(0.06172839506172839,0,0,0.06172839506172839,45.55555555555556,0)" xlink:href="#J"/><use transform="matrix(0.06172839506172839,0,0,0.06172839506172839,57.901234567901234,0)" xlink:href="#D"/></g><path d="M212-179c-10-28-35-45-73-45-59 0-87 40-87 99 0 60 29 101 89 101 43 0 62-24 78-52l27 14C228-24 195 4 139 4 59 4 22-46 18-125c-6-104 99-153 187-111 19 9 31 26 39 46" id="N"/><g id="n"><use transform="matrix(0.06172839506172839,0,0,0.06172839506172839,0,0)" xlink:href="#N"/><use transform="matrix(0.06172839506172839,0,0,0.06172839506172839,15.987654320987653,0)" xlink:href="#u"/><use transform="matrix(0.06172839506172839,0,0,0.06172839506172839,28.333333333333332,0)" xlink:href="#J"/><use transform="matrix(0.06172839506172839,0,0,0.06172839506172839,40.67901234567901,0)" xlink:href="#u"/><use transform="matrix(0.06172839506172839,0,0,0.06172839506172839,53.02469135802469,0)" xlink:href="#q"/><use transform="matrix(0.06172839506172839,0,0,0.06172839506172839,60.37037037037037,0)" xlink:href="#B"/></g><path d="M87 75C49 33 22-17 22-94c0-76 28-126 65-167h31c-38 41-64 92-64 168S80 34 118 75H87" id="O"/><path d="M33-261c38 41 65 92 65 168S71 34 33 75H2C39 34 66-17 66-93S39-220 2-261h31" id="P"/><g id="o"><use transform="matrix(0.05,0,0,0.05,0,0)" xlink:href="#O"/><use transform="matrix(0.05,0,0,0.05,5.95,0)" xlink:href="#z"/><use transform="matrix(0.05,0,0,0.05,15.949999999999998,0)" xlink:href="#y"/><use transform="matrix(0.05,0,0,0.05,25.950000000000003,0)" xlink:href="#r"/><use transform="matrix(0.05,0,0,0.05,30.950000000000003,0)" xlink:href="#s"/><use transform="matrix(0.05,0,0,0.05,34.9,0)" xlink:href="#z"/><use transform="matrix(0.05,0,0,0.05,44.9,0)" xlink:href="#J"/><use transform="matrix(0.05,0,0,0.05,54.900000000000006,0)" xlink:href="#u"/><use transform="matrix(0.05,0,0,0.05,64.9,0)" xlink:href="#H"/><use transform="matrix(0.05,0,0,0.05,68.85000000000001,0)" xlink:href="#P"/></g></defs></g></svg>