<svg xmlns="http://www.w3.org/2000/svg" xmlns:xlink="http://www.w3.org/1999/xlink" xmlns:lucid="lucid" width="1568" height="1008"><g transform="translate(0 0)" lucid:page-tab-id="0_0"><path d="M60 620h1440v320H60z" stroke="#000" stroke-width="2" fill="#fff"/><path d="M60 620h860v320H60z" stroke="#000" stroke-opacity="0" stroke-width="2" fill="#fff" fill-opacity="0"/><use xlink:href="#a" transform="matrix(1,0,0,1,65,625) translate(276.44444444444446 171)"/><path d="M60 60h320v480H60zM460 60h320v480H460zM860 60h640v480H860z" stroke="#000" stroke-width="2" fill="#fff"/><path d="M100 121h240v138H100z" stroke="#000" stroke-opacity="0" stroke-width="2" fill="#fff" fill-opacity="0"/><use xlink:href="#b" transform="matrix(1,0,0,1,105,126) translate(-19.666666666666686 42.66666666666667)"/><use xlink:href="#c" transform="matrix(1,0,0,1,105,126) translate(18.99999999999997 106.66666666666667)"/><path d="M500 121h240v138H500z" stroke="#000" stroke-opacity="0" stroke-width="2" fill="#fff" fill-opacity="0"/><use xlink:href="#b" transform="matrix(1,0,0,1,505,126) translate(-19.666666666666686 42.66666666666667)"/><use xlink:href="#d" transform="matrix(1,0,0,1,505,126) translate(-10.777777777777771 106.66666666666667)"/><path d="M1060 121h240v138h-240z" stroke="#000" stroke-opacity="0" stroke-width="2" fill="#fff" fill-opacity="0"/><use xlink:href="#e" transform="matrix(1,0,0,1,1065,126) translate(-15.148148148148152 74.66666666666667)"/><path d="M1060 453c0 7.32-26.86 13.25-60 13.25s-60-5.93-60-13.25V347c0-7.32 26.86-13.25 60-13.25s60 5.93 60 13.25z" stroke="#000" stroke-width="2" fill="#fff"/><path d="M1060 347c0 7.32-26.86 13.25-60 13.25s-60-5.93-60-13.25" stroke="#000" stroke-width="2" fill="none"/><use xlink:href="#f" transform="matrix(1,0,0,1,945,365.25) translate(22.203703703703702 35.55555555555555)"/><use xlink:href="#g" transform="matrix(1,0,0,1,945,365.25) translate(16.154320987654316 72.88888888888889)"/><path d="M1180 374h80v120h-80z" stroke="#000" stroke-width="2" fill="#fff"/><path d="M1160 354h80v120h-80z" stroke="#000" stroke-width="2" fill="#fff"/><path d="M1140 334h80v120h-80zM1320 374h80v120h-80z" stroke="#000" stroke-width="2" fill="#fff"/><path d="M1300 354h80v120h-80z" stroke="#000" stroke-width="2" fill="#fff"/><path d="M1280 334h80v120h-80z" stroke="#000" stroke-width="2" fill="#fff"/><path d="M1140 270h260v60h-260z" stroke="#000" stroke-opacity="0" stroke-width="2" fill="#fff" fill-opacity="0"/><use xlink:href="#h" transform="matrix(1,0,0,1,1145,275) translate(30.15432098765433 31.22222222222222)"/><path d="M880 620h620v60H880z" stroke="#000" stroke-width="2" fill="#fff"/><path d="M940 627h540v60H940z" stroke="#000" stroke-opacity="0" stroke-width="2" fill="#fff" fill-opacity="0"/><use xlink:href="#i" transform="matrix(1,0,0,1,945,632) translate(232.7469135802469 31.22222222222222)"/><path d="M920 680h580v60H920z" stroke="#000" stroke-width="2" fill="#fff"/><path d="M940 687h540v60H940z" stroke="#000" stroke-opacity="0" stroke-width="2" fill="#fff" fill-opacity="0"/><use xlink:href="#j" transform="matrix(1,0,0,1,945,692) translate(171.4320987654321 31.22222222222222)"/><use xlink:href="#k" transform="matrix(1,0,0,1,945,692) translate(283.60493827160496 31.22222222222222)"/><path d="M1080 888c0 6.63-26.86 12-60 12s-60-5.37-60-12v-96c0-6.63 26.86-12 60-12s60 5.37 60 12z" stroke="#000" stroke-width="2" fill="#fff"/><path d="M1080 792c0 6.63-26.86 12-60 12s-60-5.37-60-12" stroke="#000" stroke-width="2" fill="none"/><use xlink:href="#l" transform="matrix(1,0,0,1,965,809) translate(0.5987654320987659 49.22222222222222)"/><path d="M1260 888c0 6.63-26.86 12-60 12s-60-5.37-60-12v-96c0-6.63 26.86-12 60-12s60 5.37 60 12z" stroke="#000" stroke-width="2" fill="#fff"/><path d="M1260 792c0 6.63-26.86 12-60 12s-60-5.37-60-12" stroke="#000" stroke-width="2" fill="none"/><use xlink:href="#l" transform="matrix(1,0,0,1,1145,809) translate(0.5987654320987659 49.22222222222222)"/><path d="M1440 888c0 6.63-26.86 12-60 12s-60-5.37-60-12v-96c0-6.63 26.86-12 60-12s60 5.37 60 12z" stroke="#000" stroke-width="2" fill="#fff"/><path d="M1440 792c0 6.63-26.86 12-60 12s-60-5.37-60-12" stroke="#000" stroke-width="2" fill="none"/><g><use xlink:href="#l" transform="matrix(1,0,0,1,1325,809) translate(0.5987654320987659 49.22222222222222)"/></g><defs><path d="M30-248c87 1 191-15 191 75 0 78-77 80-158 76V0H30v-248zm33 125c57 0 124 11 124-50 0-59-68-47-124-48v98" id="m"/><path d="M24 0v-261h32V0H24" id="n"/><path d="M141-36C126-15 110 5 73 4 37 3 15-17 15-53c-1-64 63-63 125-63 3-35-9-54-41-54-24 1-41 7-42 31l-33-3c5-37 33-52 76-52 45 0 72 20 72 64v82c-1 20 7 32 28 27v20c-31 9-61-2-59-35zM48-53c0 20 12 33 32 33 41-3 63-29 60-74-43 2-92-5-92 41" id="o"/><path d="M59-47c-2 24 18 29 38 22v24C64 9 27 4 27-40v-127H5v-23h24l9-43h21v43h35v23H59v120" id="p"/><path d="M101-234c-31-9-42 10-38 44h38v23H63V0H32v-167H5v-23h27c-7-52 17-82 69-68v24" id="q"/><path d="M100-194c62-1 85 37 85 99 1 63-27 99-86 99S16-35 15-95c0-66 28-99 85-99zM99-20c44 1 53-31 53-75 0-43-8-75-51-75s-53 32-53 75 10 74 51 75" id="r"/><path d="M114-163C36-179 61-72 57 0H25l-1-190h30c1 12-1 29 2 39 6-27 23-49 58-41v29" id="s"/><path d="M210-169c-67 3-38 105-44 169h-31v-121c0-29-5-50-35-48C34-165 62-65 56 0H25l-1-190h30c1 10-1 24 2 32 10-44 99-50 107 0 11-21 27-35 58-36 85-2 47 119 55 194h-31v-121c0-29-5-49-35-48" id="t"/><g id="a"><use transform="matrix(0.2222222222222222,0,0,0.2222222222222222,0,0)" xlink:href="#m"/><use transform="matrix(0.2222222222222222,0,0,0.2222222222222222,53.33333333333333,0)" xlink:href="#n"/><use transform="matrix(0.2222222222222222,0,0,0.2222222222222222,70.88888888888889,0)" xlink:href="#o"/><use transform="matrix(0.2222222222222222,0,0,0.2222222222222222,115.33333333333333,0)" xlink:href="#p"/><use transform="matrix(0.2222222222222222,0,0,0.2222222222222222,137.55555555555554,0)" xlink:href="#q"/><use transform="matrix(0.2222222222222222,0,0,0.2222222222222222,159.77777777777777,0)" xlink:href="#r"/><use transform="matrix(0.2222222222222222,0,0,0.2222222222222222,204.22222222222223,0)" xlink:href="#s"/><use transform="matrix(0.2222222222222222,0,0,0.2222222222222222,230.6666666666667,0)" xlink:href="#t"/></g><path d="M212-179c-10-28-35-45-73-45-59 0-87 40-87 99 0 60 29 101 89 101 43 0 62-24 78-52l27 14C228-24 195 4 139 4 59 4 22-46 18-125c-6-104 99-153 187-111 19 9 31 26 39 46" id="u"/><path d="M117-194c89-4 53 116 60 194h-32v-121c0-31-8-49-39-48C34-167 62-67 57 0H25l-1-190h30c1 10-1 24 2 32 11-22 29-35 61-36" id="v"/><path d="M24-231v-30h32v30H24zM24 0v-190h32V0H24" id="w"/><path d="M84 4C-5 8 30-112 23-190h32v120c0 31 7 50 39 49 72-2 45-101 50-169h31l1 190h-30c-1-10 1-25-2-33-11 22-28 36-60 37" id="x"/><path d="M135-143c-3-34-86-38-87 0 15 53 115 12 119 90S17 21 10-45l28-5c4 36 97 45 98 0-10-56-113-15-118-90-4-57 82-63 122-42 12 7 21 19 24 35" id="y"/><g id="b"><use transform="matrix(0.14814814814814817,0,0,0.14814814814814817,0,0)" xlink:href="#u"/><use transform="matrix(0.14814814814814817,0,0,0.14814814814814817,38.370370370370374,0)" xlink:href="#r"/><use transform="matrix(0.14814814814814817,0,0,0.14814814814814817,68,0)" xlink:href="#v"/><use transform="matrix(0.14814814814814817,0,0,0.14814814814814817,97.62962962962962,0)" xlink:href="#p"/><use transform="matrix(0.14814814814814817,0,0,0.14814814814814817,112.44444444444446,0)" xlink:href="#w"/><use transform="matrix(0.14814814814814817,0,0,0.14814814814814817,124.14814814814817,0)" xlink:href="#v"/><use transform="matrix(0.14814814814814817,0,0,0.14814814814814817,153.7777777777778,0)" xlink:href="#x"/><use transform="matrix(0.14814814814814817,0,0,0.14814814814814817,183.40740740740742,0)" xlink:href="#r"/><use transform="matrix(0.14814814814814817,0,0,0.14814814814814817,213.03703703703707,0)" xlink:href="#x"/><use transform="matrix(0.14814814814814817,0,0,0.14814814814814817,242.66666666666669,0)" xlink:href="#y"/></g><path d="M30-248c118-7 216 8 213 122C240-48 200 0 122 0H30v-248zM63-27c89 8 146-16 146-99s-60-101-146-95v194" id="z"/><path d="M100-194c63 0 86 42 84 106H49c0 40 14 67 53 68 26 1 43-12 49-29l28 8c-11 28-37 45-77 45C44 4 14-33 15-96c1-61 26-98 85-98zm52 81c6-60-76-77-97-28-3 7-6 17-6 28h103" id="A"/><path d="M108 0H70L1-190h34L89-25l56-165h34" id="B"/><path d="M179-190L93 31C79 59 56 82 12 73V49c39 6 53-20 64-50L1-190h34L92-34l54-156h33" id="C"/><g id="c"><use transform="matrix(0.14814814814814817,0,0,0.14814814814814817,0,0)" xlink:href="#z"/><use transform="matrix(0.14814814814814817,0,0,0.14814814814814817,38.370370370370374,0)" xlink:href="#A"/><use transform="matrix(0.14814814814814817,0,0,0.14814814814814817,68,0)" xlink:href="#n"/><use transform="matrix(0.14814814814814817,0,0,0.14814814814814817,79.70370370370371,0)" xlink:href="#w"/><use transform="matrix(0.14814814814814817,0,0,0.14814814814814817,91.40740740740742,0)" xlink:href="#B"/><use transform="matrix(0.14814814814814817,0,0,0.14814814814814817,118.07407407407409,0)" xlink:href="#A"/><use transform="matrix(0.14814814814814817,0,0,0.14814814814814817,147.70370370370372,0)" xlink:href="#s"/><use transform="matrix(0.14814814814814817,0,0,0.14814814814814817,165.33333333333334,0)" xlink:href="#C"/></g><path d="M33 0v-248h34V0H33" id="D"/><path d="M177-190C167-65 218 103 67 71c-23-6-38-20-44-43l32-5c15 47 100 32 89-28v-30C133-14 115 1 83 1 29 1 15-40 15-95c0-56 16-97 71-98 29-1 48 16 59 35 1-10 0-23 2-32h30zM94-22c36 0 50-32 50-73 0-42-14-75-50-75-39 0-46 34-46 75s6 73 46 73" id="E"/><g id="d"><use transform="matrix(0.14814814814814817,0,0,0.14814814814814817,0,0)" xlink:href="#D"/><use transform="matrix(0.14814814814814817,0,0,0.14814814814814817,14.814814814814817,0)" xlink:href="#v"/><use transform="matrix(0.14814814814814817,0,0,0.14814814814814817,44.44444444444445,0)" xlink:href="#p"/><use transform="matrix(0.14814814814814817,0,0,0.14814814814814817,59.25925925925927,0)" xlink:href="#A"/><use transform="matrix(0.14814814814814817,0,0,0.14814814814814817,88.8888888888889,0)" xlink:href="#E"/><use transform="matrix(0.14814814814814817,0,0,0.14814814814814817,118.51851851851853,0)" xlink:href="#s"/><use transform="matrix(0.14814814814814817,0,0,0.14814814814814817,136.14814814814815,0)" xlink:href="#o"/><use transform="matrix(0.14814814814814817,0,0,0.14814814814814817,165.77777777777777,0)" xlink:href="#p"/><use transform="matrix(0.14814814814814817,0,0,0.14814814814814817,180.59259259259258,0)" xlink:href="#w"/><use transform="matrix(0.14814814814814817,0,0,0.14814814814814817,192.29629629629628,0)" xlink:href="#r"/><use transform="matrix(0.14814814814814817,0,0,0.14814814814814817,221.92592592592592,0)" xlink:href="#v"/></g><path d="M205 0l-28-72H64L36 0H1l101-248h38L239 0h-34zm-38-99l-47-123c-12 45-31 82-46 123h93" id="F"/><path d="M115-194c55 1 70 41 70 98S169 2 115 4C84 4 66-9 55-30l1 105H24l-1-265h31l2 30c10-21 28-34 59-34zm-8 174c40 0 45-34 45-75s-6-73-45-74c-42 0-51 32-51 76 0 43 10 73 51 73" id="G"/><path d="M96-169c-40 0-48 33-48 73s9 75 48 75c24 0 41-14 43-38l32 2c-6 37-31 61-74 61-59 0-76-41-82-99-10-93 101-131 147-64 4 7 5 14 7 22l-32 3c-4-21-16-35-41-35" id="H"/><g id="e"><use transform="matrix(0.14814814814814817,0,0,0.14814814814814817,0,0)" xlink:href="#F"/><use transform="matrix(0.14814814814814817,0,0,0.14814814814814817,35.55555555555556,0)" xlink:href="#G"/><use transform="matrix(0.14814814814814817,0,0,0.14814814814814817,65.18518518518519,0)" xlink:href="#G"/><use transform="matrix(0.14814814814814817,0,0,0.14814814814814817,94.81481481481482,0)" xlink:href="#n"/><use transform="matrix(0.14814814814814817,0,0,0.14814814814814817,106.51851851851853,0)" xlink:href="#w"/><use transform="matrix(0.14814814814814817,0,0,0.14814814814814817,118.22222222222224,0)" xlink:href="#H"/><use transform="matrix(0.14814814814814817,0,0,0.14814814814814817,144.8888888888889,0)" xlink:href="#o"/><use transform="matrix(0.14814814814814817,0,0,0.14814814814814817,174.51851851851853,0)" xlink:href="#p"/><use transform="matrix(0.14814814814814817,0,0,0.14814814814814817,189.33333333333337,0)" xlink:href="#w"/><use transform="matrix(0.14814814814814817,0,0,0.14814814814814817,201.03703703703704,0)" xlink:href="#r"/><use transform="matrix(0.14814814814814817,0,0,0.14814814814814817,230.66666666666669,0)" xlink:href="#v"/></g><g id="f"><use transform="matrix(0.08641975308641976,0,0,0.08641975308641976,0,0)" xlink:href="#z"/><use transform="matrix(0.08641975308641976,0,0,0.08641975308641976,22.38271604938272,0)" xlink:href="#o"/><use transform="matrix(0.08641975308641976,0,0,0.08641975308641976,39.66666666666667,0)" xlink:href="#p"/><use transform="matrix(0.08641975308641976,0,0,0.08641975308641976,48.308641975308646,0)" xlink:href="#o"/></g><path d="M30 0v-248h33v221h125V0H30" id="I"/><g id="g"><use transform="matrix(0.08641975308641976,0,0,0.08641975308641976,0,0)" xlink:href="#I"/><use transform="matrix(0.08641975308641976,0,0,0.08641975308641976,17.283950617283953,0)" xlink:href="#o"/><use transform="matrix(0.08641975308641976,0,0,0.08641975308641976,34.567901234567906,0)" xlink:href="#C"/><use transform="matrix(0.08641975308641976,0,0,0.08641975308641976,50.12345679012346,0)" xlink:href="#A"/><use transform="matrix(0.08641975308641976,0,0,0.08641975308641976,67.40740740740742,0)" xlink:href="#s"/></g><path d="M240 0l2-218c-23 76-54 145-80 218h-23L58-218 59 0H30v-248h44l77 211c21-75 51-140 76-211h43V0h-30" id="J"/><g id="h"><use transform="matrix(0.08641975308641976,0,0,0.08641975308641976,0,0)" xlink:href="#J"/><use transform="matrix(0.08641975308641976,0,0,0.08641975308641976,25.83950617283951,0)" xlink:href="#w"/><use transform="matrix(0.08641975308641976,0,0,0.08641975308641976,32.66666666666667,0)" xlink:href="#H"/><use transform="matrix(0.08641975308641976,0,0,0.08641975308641976,48.22222222222223,0)" xlink:href="#s"/><use transform="matrix(0.08641975308641976,0,0,0.08641975308641976,58.50617283950618,0)" xlink:href="#r"/><use transform="matrix(0.08641975308641976,0,0,0.08641975308641976,75.79012345679013,0)" xlink:href="#y"/><use transform="matrix(0.08641975308641976,0,0,0.08641975308641976,91.34567901234568,0)" xlink:href="#A"/><use transform="matrix(0.08641975308641976,0,0,0.08641975308641976,108.62962962962965,0)" xlink:href="#s"/><use transform="matrix(0.08641975308641976,0,0,0.08641975308641976,118.91358024691357,0)" xlink:href="#B"/><use transform="matrix(0.08641975308641976,0,0,0.08641975308641976,134.46913580246914,0)" xlink:href="#w"/><use transform="matrix(0.08641975308641976,0,0,0.08641975308641976,141.2962962962963,0)" xlink:href="#H"/><use transform="matrix(0.08641975308641976,0,0,0.08641975308641976,156.85185185185185,0)" xlink:href="#A"/><use transform="matrix(0.08641975308641976,0,0,0.08641975308641976,174.1358024691358,0)" xlink:href="#y"/></g><path d="M185-189c-5-48-123-54-124 2 14 75 158 14 163 119 3 78-121 87-175 55-17-10-28-26-33-46l33-7c5 56 141 63 141-1 0-78-155-14-162-118-5-82 145-84 179-34 5 7 8 16 11 25" id="K"/><path d="M190 0L58-211 59 0H30v-248h39L202-35l-2-213h31V0h-41" id="L"/><g id="i"><use transform="matrix(0.08641975308641976,0,0,0.08641975308641976,0,0)" xlink:href="#K"/><use transform="matrix(0.08641975308641976,0,0,0.08641975308641976,20.740740740740744,0)" xlink:href="#z"/><use transform="matrix(0.08641975308641976,0,0,0.08641975308641976,43.12345679012346,0)" xlink:href="#L"/></g><g id="j"><use transform="matrix(0.08641975308641976,0,0,0.08641975308641976,0,0)" xlink:href="#K"/><use transform="matrix(0.08641975308641976,0,0,0.08641975308641976,20.740740740740744,0)" xlink:href="#A"/><use transform="matrix(0.08641975308641976,0,0,0.08641975308641976,38.0246913580247,0)" xlink:href="#s"/><use transform="matrix(0.08641975308641976,0,0,0.08641975308641976,48.308641975308646,0)" xlink:href="#B"/><use transform="matrix(0.08641975308641976,0,0,0.08641975308641976,63.8641975308642,0)" xlink:href="#w"/><use transform="matrix(0.08641975308641976,0,0,0.08641975308641976,70.69135802469137,0)" xlink:href="#H"/><use transform="matrix(0.08641975308641976,0,0,0.08641975308641976,86.24691358024693,0)" xlink:href="#A"/></g><path d="M106-169C34-169 62-67 57 0H25v-261h32l-1 103c12-21 28-36 61-36 89 0 53 116 60 194h-32v-121c2-32-8-49-39-48" id="M"/><g id="k"><use transform="matrix(0.08641975308641976,0,0,0.08641975308641976,0,0)" xlink:href="#J"/><use transform="matrix(0.08641975308641976,0,0,0.08641975308641976,25.83950617283951,0)" xlink:href="#A"/><use transform="matrix(0.08641975308641976,0,0,0.08641975308641976,43.12345679012346,0)" xlink:href="#y"/><use transform="matrix(0.08641975308641976,0,0,0.08641975308641976,58.67901234567902,0)" xlink:href="#M"/></g><g id="l"><use transform="matrix(0.08641975308641976,0,0,0.08641975308641976,0,0)" xlink:href="#K"/><use transform="matrix(0.08641975308641976,0,0,0.08641975308641976,20.740740740740744,0)" xlink:href="#p"/><use transform="matrix(0.08641975308641976,0,0,0.08641975308641976,29.382716049382726,0)" xlink:href="#r"/><use transform="matrix(0.08641975308641976,0,0,0.08641975308641976,46.66666666666667,0)" xlink:href="#s"/><use transform="matrix(0.08641975308641976,0,0,0.08641975308641976,56.95061728395062,0)" xlink:href="#o"/><use transform="matrix(0.08641975308641976,0,0,0.08641975308641976,74.23456790123457,0)" xlink:href="#E"/><use transform="matrix(0.08641975308641976,0,0,0.08641975308641976,91.51851851851853,0)" xlink:href="#A"/></g></defs></g></svg>